# xmcd
#
# Track frame offsets:
#	150
#	12660
#	23773
#	37630
#	50680
#	63600
#	76255
#	93518
#	104650
#	114573
#	128753
#	140943
#	154003
#	167200
#	180143
#	193860
#	209113
#	226375
#	240038
#
# Disc length: 3408 seconds
#
# Revision: 1
# Processed by: cddbd v1.5.1PL0 Copyright (c) Steve Scherf et al.
# Submitted via: audiograbber 1.83.01
#
DISCID=030d4e13
DTITLE=Ollie and The Nightingales - Ollie and The Nightingales
DYEAR=1993
DGENRE=R&B
TTITLE0=You'll Never Do Wrong 
TTITLE1=Don't Make The Good Suffer 
TTITLE2=Don't Do What I Did 
TTITLE3=I've Got A Feeling 
TTITLE4=You're Leaving Me 
TTITLE5=Broke-In Love 
TTITLE6=A-B-C-D 
TTITLE7=Mellow Way You Treat Your Man 
TTITLE8=Girl You Make My Heart Sing 
TTITLE9=I've Never Found A Girl 
TTITLE10=Showered With Love 
TTITLE11=Bracing Myself For The Fall 
TTITLE12=I'll Be Your Anything 
TTITLE13=You're Movin' Much Too Fast 
TTITLE14=Don't Let A Good Thing Go 
TTITLE15=I Don't Want To Be Like My Daddy 
TTITLE16=Just A Little Overcome 
TTITLE17=Can't Get Away 
TTITLE18=Don't Do It/I'm With You 
EXTD=
EXTT0=
EXTT1=
EXTT2=
EXTT3=
EXTT4=
EXTT5=
EXTT6=
EXTT7=
EXTT8=
EXTT9=
EXTT10=
EXTT11=
EXTT12=
EXTT13=
EXTT14=
EXTT15=
EXTT16=
EXTT17=
EXTT18=
PLAYORDER=
